<?xml version="1.0" encoding="UTF-8"?>
<svg xmlns="http://www.w3.org/2000/svg" version="1.1" width="360" height="532.94" viewBox="0 0 360 532.94" class="atelier-diagram" data-renderer="atelier/diagram" role="img"><title>Checkout flow</title><rect x="0" y="0" width="360" height="532.94" fill="#ffffff"/><text x="180" y="46.81" font-family="Helvetica, Arial, sans-serif" font-size="16.1" font-weight="bold" text-anchor="middle" fill="#1e293b">Checkout flow</text><rect x="102.88" y="50.54" width="154.24" height="462.4" rx="6" fill="#ffffff" stroke="#64748b" stroke-width="1.5" opacity="0.85"/><rect x="102.88" y="174.14" width="154.24" height="215.2" rx="6" fill="#ffffff" stroke="#64748b" stroke-width="1.5" opacity="0.85"/><line x1="180" y1="130.14" x2="180" y2="210.14" fill="none" stroke="#334155" stroke-width="1.5" stroke-linecap="round" stroke-linejoin="round"/><path d="M 180 210.14 L 176.4 200.94 L 183.6 200.94 Z" fill="#334155"/><line x1="180" y1="253.74" x2="180" y2="333.74" fill="none" stroke="#334155" stroke-width="1.5" stroke-linecap="round" stroke-linejoin="round"/><path d="M 180 333.74 L 176.4 324.54 L 183.6 324.54 Z" fill="#334155"/><path d="M 180 253.74 L 261.12 253.74 L 261.12 457.34 L 180 457.34" fill="none" stroke="#334155" stroke-width="1.5" stroke-linecap="round" stroke-linejoin="round"/><path d="M 180 457.34 L 189.2 453.74 L 189.2 460.94 Z" fill="#334155"/><line x1="180" y1="377.34" x2="180" y2="457.34" fill="none" stroke="#334155" stroke-width="1.5" stroke-linecap="round" stroke-linejoin="round"/><path d="M 180 457.34 L 176.4 448.14 L 183.6 448.14 Z" fill="#334155"/><rect x="140" y="86.54" width="80" height="43.6" rx="4" fill="#f1f5f9" stroke="#334155" stroke-width="1.5"/><text x="180" y="111.42" font-family="Helvetica, Arial, sans-serif" font-size="14" text-anchor="middle" fill="#1e293b">Cart</text><rect x="132.38" y="210.14" width="95.24" height="43.6" rx="4" fill="#f1f5f9" stroke="#334155" stroke-width="1.5"/><text x="180" y="235.02" font-family="Helvetica, Arial, sans-serif" font-size="14" text-anchor="middle" fill="#1e293b">Payment</text><rect x="114.88" y="333.74" width="130.24" height="43.6" rx="4" fill="#f1f5f9" stroke="#334155" stroke-width="1.5"/><text x="180" y="358.62" font-family="Helvetica, Arial, sans-serif" font-size="14" text-anchor="middle" fill="#1e293b">Manual review</text><rect x="128.11" y="457.34" width="103.78" height="43.6" rx="4" fill="#f1f5f9" stroke="#334155" stroke-width="1.5"/><text x="180" y="482.22" font-family="Helvetica, Arial, sans-serif" font-size="14" text-anchor="middle" fill="#1e293b">Fulfillment</text><rect x="104.88" y="55.74" width="64.78" height="21.46" rx="3.2" fill="#ffffff"/><text x="110.88" y="69.09" font-family="Helvetica, Arial, sans-serif" font-size="11.9" font-weight="bold" fill="#64748b">Checkout</text><rect x="104.88" y="179.34" width="103.66" height="21.46" rx="3.2" fill="#ffffff"/><text x="110.88" y="192.69" font-family="Helvetica, Arial, sans-serif" font-size="11.9" font-weight="bold" fill="#64748b">Payment checks</text><rect x="164.41" y="160.32" width="31.18" height="19.64" rx="3.6" fill="#ffffff" opacity="0.96"/><text x="180" y="174.07" font-family="Helvetica, Arial, sans-serif" font-size="11.9" text-anchor="middle" fill="#1e293b">pay</text><rect x="138.95" y="283.92" width="82.1" height="19.64" rx="3.6" fill="#ffffff" opacity="0.96"/><text x="180" y="297.67" font-family="Helvetica, Arial, sans-serif" font-size="11.9" text-anchor="middle" fill="#1e293b">needs review</text><rect x="265.12" y="345.72" width="60.29" height="19.64" rx="3.6" fill="#ffffff" opacity="0.96"/><text x="295.27" y="359.47" font-family="Helvetica, Arial, sans-serif" font-size="11.9" text-anchor="middle" fill="#1e293b">accepted</text><rect x="149.19" y="407.52" width="61.61" height="19.64" rx="3.6" fill="#ffffff" opacity="0.96"/><text x="180" y="421.27" font-family="Helvetica, Arial, sans-serif" font-size="11.9" text-anchor="middle" fill="#1e293b">approved</text></svg>
