<?xml version="1.0" encoding="UTF-8"?>
<svg xmlns="http://www.w3.org/2000/svg" version="1.1" width="1077.42" height="312.75" viewBox="0 0 1077.42 312.75" class="atelier-diagram" data-renderer="atelier/diagram"><rect x="0" y="0" width="1077.42" height="312.75" fill="transparent"/><rect x="36" y="36" width="195.42" height="240.75" rx="6" fill="var(--surface-1, #14141c)" stroke="var(--color-brand, #6ea8fe)" stroke-width="1.8" opacity="0.92"/><rect x="36" y="36" width="195.42" height="29.25" rx="6" fill="var(--color-brand, #6ea8fe)" opacity="0.14"/><rect x="36" y="36" width="4.95" height="29.25" fill="var(--color-brand, #6ea8fe)"/><line x1="36" y1="65.25" x2="231.42" y2="65.25" fill="none" stroke="var(--color-brand, #6ea8fe)" stroke-width="1.35" stroke-linecap="round" stroke-linejoin="round"/><text x="49.5" y="53.92" font-family="system-ui, -apple-system, Helvetica, Arial, sans-serif" font-size="15" font-weight="bold" fill="var(--ink-0, #e6e6ea)">Users</text><rect x="348.42" y="36" width="387" height="240.75" rx="6" fill="var(--surface-1, #14141c)" stroke="var(--color-brand, #6ea8fe)" stroke-width="1.8" opacity="0.92"/><rect x="348.42" y="36" width="387" height="29.25" rx="6" fill="var(--color-brand, #6ea8fe)" opacity="0.14"/><rect x="348.42" y="36" width="4.95" height="29.25" fill="var(--color-brand, #6ea8fe)"/><line x1="348.42" y1="65.25" x2="735.42" y2="65.25" fill="none" stroke="var(--color-brand, #6ea8fe)" stroke-width="1.35" stroke-linecap="round" stroke-linejoin="round"/><text x="361.92" y="53.92" font-family="system-ui, -apple-system, Helvetica, Arial, sans-serif" font-size="15" font-weight="bold" fill="var(--ink-0, #e6e6ea)">Web tier</text><rect x="852.42" y="36" width="189" height="240.75" rx="6" fill="var(--surface-1, #14141c)" stroke="var(--color-brand, #6ea8fe)" stroke-width="1.8" opacity="0.92"/><rect x="852.42" y="36" width="189" height="29.25" rx="6" fill="var(--color-brand, #6ea8fe)" opacity="0.14"/><rect x="852.42" y="36" width="4.95" height="29.25" fill="var(--color-brand, #6ea8fe)"/><line x1="852.42" y1="65.25" x2="1041.42" y2="65.25" fill="none" stroke="var(--color-brand, #6ea8fe)" stroke-width="1.35" stroke-linecap="round" stroke-linejoin="round"/><text x="865.92" y="53.92" font-family="system-ui, -apple-system, Helvetica, Arial, sans-serif" font-size="15" font-weight="bold" fill="var(--ink-0, #e6e6ea)">Data tier</text><line x1="213.42" y1="115.88" x2="366.42" y2="115.88" fill="none" stroke="var(--color-brand, #6ea8fe)" stroke-width="1.8" stroke-linecap="round" stroke-linejoin="round"/><path d="M 366.42 115.88 L 356.07 119.92 L 356.07 111.83 Z" fill="var(--color-brand, #6ea8fe)"/><line x1="519.42" y1="115.88" x2="564.42" y2="115.88" fill="none" stroke="var(--color-brand, #6ea8fe)" stroke-width="1.8" stroke-linecap="round" stroke-linejoin="round"/><path d="M 564.42 115.88 L 554.07 119.92 L 554.07 111.83 Z" fill="var(--color-brand, #6ea8fe)"/><line x1="717.42" y1="115.88" x2="870.42" y2="115.88" fill="none" stroke="var(--color-brand, #6ea8fe)" stroke-width="1.8" stroke-linecap="round" stroke-linejoin="round"/><path d="M 870.42 115.88 L 860.07 119.92 L 860.07 111.83 Z" fill="var(--color-brand, #6ea8fe)"/><path d="M 717.42 115.88 L 793.92 115.88 L 793.92 226.12 L 870.42 226.12" fill="none" stroke="var(--color-brand, #6ea8fe)" stroke-width="1.8" stroke-linecap="round" stroke-linejoin="round"/><path d="M 870.42 226.12 L 860.07 230.18 L 860.07 222.07 Z" fill="var(--color-brand, #6ea8fe)"/><path d="M 564.42 115.88 L 388.92 115.88 L 388.92 226.12 L 213.42 226.12" fill="none" stroke="var(--color-brand, #6ea8fe)" stroke-width="1.8" stroke-linecap="round" stroke-linejoin="round"/><path d="M 213.42 226.12 L 223.77 222.07 L 223.77 230.18 Z" fill="var(--color-brand, #6ea8fe)"/><path d="M 564.42 115.88 L 541.92 115.88 L 541.92 226.12 L 519.42 226.12" fill="none" stroke="var(--color-brand, #6ea8fe)" stroke-width="1.8" stroke-linecap="round" stroke-linejoin="round"/><path d="M 519.42 226.12 L 529.77 222.07 L 529.77 230.18 Z" fill="var(--color-brand, #6ea8fe)"/><rect x="54" y="83.25" width="159.42" height="65.25" rx="5" fill="var(--surface-1, #14141c)" stroke="var(--color-brand, #6ea8fe)" stroke-width="1.8"/><rect x="60.3" y="89.55" width="56.95" height="14.85" rx="2" fill="var(--color-brand, #6ea8fe)"/><text x="88.77" y="99.15" font-family="system-ui, -apple-system, Helvetica, Arial, sans-serif" font-size="9.9" font-weight="bold" text-anchor="middle" fill="var(--figure-canvas, #05070c)">PERSON</text><text x="133.71" y="130.05" font-family="system-ui, -apple-system, Helvetica, Arial, sans-serif" font-size="15" font-weight="bold" text-anchor="middle" fill="var(--ink-0, #e6e6ea)">Customer</text><rect x="54" y="193.5" width="159.42" height="65.25" rx="5" fill="var(--surface-1, #14141c)" stroke="var(--ink-1, #9a9aa6)" stroke-width="1.8"/><rect x="60.3" y="199.8" width="67.93" height="14.85" rx="2" fill="var(--ink-1, #9a9aa6)"/><text x="94.26" y="209.4" font-family="system-ui, -apple-system, Helvetica, Arial, sans-serif" font-size="9.9" font-weight="bold" text-anchor="middle" fill="var(--figure-canvas, #05070c)">EXTERNAL</text><text x="133.71" y="240.3" font-family="system-ui, -apple-system, Helvetica, Arial, sans-serif" font-size="15" font-weight="bold" text-anchor="middle" fill="var(--ink-0, #e6e6ea)">Payment provider</text><rect x="366.42" y="83.25" width="153" height="65.25" rx="5" fill="var(--surface-1, #14141c)" stroke="var(--color-brand, #6ea8fe)" stroke-width="1.8"/><rect x="372.72" y="89.55" width="80.62" height="14.85" rx="2" fill="var(--color-brand, #6ea8fe)"/><text x="413.03" y="99.15" font-family="system-ui, -apple-system, Helvetica, Arial, sans-serif" font-size="9.9" font-weight="bold" text-anchor="middle" fill="var(--figure-canvas, #05070c)">COMPONENT</text><text x="442.92" y="130.05" font-family="system-ui, -apple-system, Helvetica, Arial, sans-serif" font-size="15" font-weight="bold" text-anchor="middle" fill="var(--ink-0, #e6e6ea)">Frontend app</text><rect x="564.42" y="83.25" width="153" height="65.25" rx="5" fill="var(--surface-1, #14141c)" stroke="var(--color-brand, #6ea8fe)" stroke-width="1.8"/><rect x="570.72" y="89.55" width="80.62" height="14.85" rx="2" fill="var(--color-brand, #6ea8fe)"/><text x="611.03" y="99.15" font-family="system-ui, -apple-system, Helvetica, Arial, sans-serif" font-size="9.9" font-weight="bold" text-anchor="middle" fill="var(--figure-canvas, #05070c)">COMPONENT</text><text x="640.92" y="130.05" font-family="system-ui, -apple-system, Helvetica, Arial, sans-serif" font-size="15" font-weight="bold" text-anchor="middle" fill="var(--ink-0, #e6e6ea)">Checkout API</text><rect x="366.42" y="193.5" width="153" height="65.25" rx="5" fill="var(--surface-1, #14141c)" stroke="var(--color-brand, #6ea8fe)" stroke-width="1.8"/><rect x="372.72" y="199.8" width="50.01" height="14.85" rx="2" fill="var(--color-brand, #6ea8fe)"/><text x="397.72" y="209.4" font-family="system-ui, -apple-system, Helvetica, Arial, sans-serif" font-size="9.9" font-weight="bold" text-anchor="middle" fill="var(--figure-canvas, #05070c)">QUEUE</text><text x="442.92" y="240.3" font-family="system-ui, -apple-system, Helvetica, Arial, sans-serif" font-size="15" font-weight="bold" text-anchor="middle" fill="var(--ink-0, #e6e6ea)">Domain events</text><rect x="870.42" y="83.25" width="153" height="65.25" rx="5" fill="var(--surface-1, #14141c)" stroke="var(--doc-figure-5, #c46b8a)" stroke-width="1.8"/><rect x="876.72" y="89.55" width="68.51" height="14.85" rx="2" fill="var(--doc-figure-5, #c46b8a)"/><text x="910.97" y="99.15" font-family="system-ui, -apple-system, Helvetica, Arial, sans-serif" font-size="9.9" font-weight="bold" text-anchor="middle" fill="var(--figure-canvas, #05070c)">DATABASE</text><text x="946.92" y="130.05" font-family="system-ui, -apple-system, Helvetica, Arial, sans-serif" font-size="15" font-weight="bold" text-anchor="middle" fill="var(--ink-0, #e6e6ea)">Orders DB</text><rect x="870.42" y="193.5" width="153" height="65.25" rx="5" fill="var(--surface-1, #14141c)" stroke="var(--doc-figure-5, #c46b8a)" stroke-width="1.8"/><rect x="876.72" y="199.8" width="68.51" height="14.85" rx="2" fill="var(--doc-figure-5, #c46b8a)"/><text x="910.97" y="209.4" font-family="system-ui, -apple-system, Helvetica, Arial, sans-serif" font-size="9.9" font-weight="bold" text-anchor="middle" fill="var(--figure-canvas, #05070c)">DATABASE</text><text x="946.92" y="240.3" font-family="system-ui, -apple-system, Helvetica, Arial, sans-serif" font-size="15" font-weight="bold" text-anchor="middle" fill="var(--ink-0, #e6e6ea)">Ledger DB</text><rect x="268.34" y="104.62" width="43.15" height="22.5" rx="4.05" fill="var(--figure-canvas, #05070c)" opacity="0.96"/><text x="289.92" y="117.71" font-family="system-ui, -apple-system, Helvetica, Arial, sans-serif" font-size="10.8" text-anchor="middle" fill="var(--ink-0, #e6e6ea)">uses</text><rect x="521.13" y="104.62" width="41.58" height="22.5" rx="4.05" fill="var(--figure-canvas, #05070c)" opacity="0.96"/><text x="541.92" y="117.71" font-family="system-ui, -apple-system, Helvetica, Arial, sans-serif" font-size="10.8" text-anchor="middle" fill="var(--ink-0, #e6e6ea)">calls</text><rect x="768.84" y="104.62" width="50.16" height="22.5" rx="4.05" fill="var(--figure-canvas, #05070c)" opacity="0.96"/><text x="793.92" y="117.71" font-family="system-ui, -apple-system, Helvetica, Arial, sans-serif" font-size="10.8" text-anchor="middle" fill="var(--ink-0, #e6e6ea)">writes</text><rect x="770.39" y="159.75" width="47.06" height="22.5" rx="4.05" fill="var(--figure-canvas, #05070c)" opacity="0.96"/><text x="793.92" y="172.84" font-family="system-ui, -apple-system, Helvetica, Arial, sans-serif" font-size="10.8" text-anchor="middle" fill="var(--ink-0, #e6e6ea)">posts</text><rect x="357.2" y="159.75" width="63.44" height="22.5" rx="4.05" fill="var(--figure-canvas, #05070c)" opacity="0.96"/><text x="388.92" y="172.84" font-family="system-ui, -apple-system, Helvetica, Arial, sans-serif" font-size="10.8" text-anchor="middle" fill="var(--ink-0, #e6e6ea)">charges</text><rect x="505.51" y="159.75" width="72.8" height="22.5" rx="4.05" fill="var(--figure-canvas, #05070c)" opacity="0.96"/><text x="541.92" y="172.84" font-family="system-ui, -apple-system, Helvetica, Arial, sans-serif" font-size="10.8" text-anchor="middle" fill="var(--ink-0, #e6e6ea)">publishes</text></svg>
