<?xml version="1.0" encoding="UTF-8"?>
<svg xmlns="http://www.w3.org/2000/svg" version="1.1" width="752.94" height="330.3" viewBox="0 0 752.94 330.3" class="atelier-diagram" data-renderer="atelier/diagram"><rect x="0" y="0" width="752.94" height="330.3" fill="transparent"/><line x1="138.92" y1="59.62" x2="201.92" y2="59.62" fill="none" stroke="var(--accent, #7e73ee)" stroke-width="2.4" stroke-linecap="round" stroke-linejoin="round"/><path d="M 201.92 59.62 H 222.17 Q 233.42 59.62 233.42 70.88 V 111.38 Q 233.42 122.62 244.67 122.62 H 264.92" fill="none" stroke="var(--color-brand, #6ea8fe)" stroke-width="2.4" stroke-linecap="round" stroke-linejoin="round"/><line x1="264.92" y1="122.62" x2="327.92" y2="122.62" fill="none" stroke="var(--color-brand, #6ea8fe)" stroke-width="2.4" stroke-linecap="round" stroke-linejoin="round"/><line x1="201.92" y1="59.62" x2="390.92" y2="59.62" fill="none" stroke="var(--accent, #7e73ee)" stroke-width="2.4" stroke-linecap="round" stroke-linejoin="round"/><path d="M 390.92 59.62 H 411.17 Q 422.42 59.62 422.42 70.88 V 174.38 Q 422.42 185.62 433.67 185.62 H 453.92" fill="none" stroke="var(--doc-figure-2, #7e73ee)" stroke-width="2.4" stroke-linecap="round" stroke-linejoin="round"/><line x1="390.92" y1="59.62" x2="516.92" y2="59.62" fill="none" stroke="var(--accent, #7e73ee)" stroke-width="2.4" stroke-linecap="round" stroke-linejoin="round"/><path d="M 327.92 122.62 H 442.67 Q 453.92 122.62 453.92 111.38 V 70.88 Q 453.92 59.62 465.17 59.62 H 516.92" fill="none" stroke="var(--color-brand, #6ea8fe)" stroke-width="2.4" stroke-linecap="round" stroke-linejoin="round"/><line x1="453.92" y1="185.62" x2="579.92" y2="185.62" fill="none" stroke="var(--doc-figure-2, #7e73ee)" stroke-width="2.4" stroke-linecap="round" stroke-linejoin="round"/><line x1="516.92" y1="59.62" x2="642.92" y2="59.62" fill="none" stroke="var(--accent, #7e73ee)" stroke-width="2.4" stroke-linecap="round" stroke-linejoin="round"/><path d="M 579.92 185.62 H 600.17 Q 611.42 185.62 611.42 174.38 V 70.88 Q 611.42 59.62 622.67 59.62 H 642.92" fill="none" stroke="var(--doc-figure-2, #7e73ee)" stroke-width="2.4" stroke-linecap="round" stroke-linejoin="round"/><line x1="642.92" y1="59.62" x2="705.92" y2="59.62" fill="none" stroke="var(--accent, #7e73ee)" stroke-width="2.4" stroke-linecap="round" stroke-linejoin="round"/><circle cx="138.92" cy="59.62" r="7.88" fill="var(--accent, #7e73ee)"/><circle cx="201.92" cy="59.62" r="7.88" fill="var(--accent, #7e73ee)"/><circle cx="264.92" cy="122.62" r="7.88" fill="var(--color-brand, #6ea8fe)"/><circle cx="327.92" cy="122.62" r="7.88" fill="var(--color-brand, #6ea8fe)"/><circle cx="390.92" cy="59.62" r="7.88" fill="var(--accent, #7e73ee)"/><circle cx="453.92" cy="185.62" r="7.88" fill="var(--doc-figure-2, #7e73ee)"/><circle cx="516.92" cy="59.62" r="7.88" fill="transparent" stroke="var(--accent, #7e73ee)" stroke-width="2.4"/><circle cx="579.92" cy="185.62" r="7.88" fill="var(--doc-figure-2, #7e73ee)"/><circle cx="642.92" cy="59.62" r="7.88" fill="transparent" stroke="var(--accent, #7e73ee)" stroke-width="2.4"/><circle cx="705.92" cy="59.62" r="7.88" fill="var(--accent, #7e73ee)"/><text x="138.92" y="82.35" font-family="system-ui, -apple-system, Helvetica, Arial, sans-serif" font-size="11.25" text-anchor="middle" fill="var(--ink-1, #9a9aa6)">a1b2c3d</text><text x="201.92" y="82.35" font-family="system-ui, -apple-system, Helvetica, Arial, sans-serif" font-size="11.25" text-anchor="middle" fill="var(--ink-1, #9a9aa6)">b1ea5e0</text><text x="264.92" y="145.35" font-family="system-ui, -apple-system, Helvetica, Arial, sans-serif" font-size="11.25" text-anchor="middle" fill="var(--ink-1, #9a9aa6)">fa6835e</text><text x="327.92" y="145.35" font-family="system-ui, -apple-system, Helvetica, Arial, sans-serif" font-size="11.25" text-anchor="middle" fill="var(--ink-1, #9a9aa6)">d9cdcc3</text><rect x="297.41" y="90" width="61.03" height="20.25" rx="3.38" fill="var(--doc-figure-fill, #14141c)" stroke="var(--accent, #7e73ee)"/><text x="327.92" y="102.6" font-family="system-ui, -apple-system, Helvetica, Arial, sans-serif" font-size="11.25" text-anchor="middle" fill="var(--ink-0, #e6e6ea)">auth-beta</text><text x="390.92" y="82.35" font-family="system-ui, -apple-system, Helvetica, Arial, sans-serif" font-size="11.25" text-anchor="middle" fill="var(--ink-1, #9a9aa6)">b37ea97</text><text x="453.92" y="208.35" font-family="system-ui, -apple-system, Helvetica, Arial, sans-serif" font-size="11.25" text-anchor="middle" fill="var(--ink-1, #9a9aa6)">d46b989</text><text x="516.92" y="82.35" font-family="system-ui, -apple-system, Helvetica, Arial, sans-serif" font-size="11.25" text-anchor="middle" fill="var(--ink-1, #9a9aa6)">7ff9c44</text><text x="579.92" y="208.35" font-family="system-ui, -apple-system, Helvetica, Arial, sans-serif" font-size="11.25" text-anchor="middle" fill="var(--ink-1, #9a9aa6)">fed9d0e</text><text x="642.92" y="82.35" font-family="system-ui, -apple-system, Helvetica, Arial, sans-serif" font-size="11.25" text-anchor="middle" fill="var(--ink-1, #9a9aa6)">3f109ed</text><text x="705.92" y="82.35" font-family="system-ui, -apple-system, Helvetica, Arial, sans-serif" font-size="11.25" text-anchor="middle" fill="var(--ink-1, #9a9aa6)">f9e8d7c</text><rect x="688.54" y="27" width="34.76" height="20.25" rx="3.38" fill="var(--doc-figure-fill, #14141c)" stroke="var(--accent, #7e73ee)"/><text x="705.92" y="39.6" font-family="system-ui, -apple-system, Helvetica, Arial, sans-serif" font-size="11.25" text-anchor="middle" fill="var(--ink-0, #e6e6ea)">v1.0</text><text x="111.92" y="62.92" font-family="system-ui, -apple-system, Helvetica, Arial, sans-serif" font-size="15" font-weight="bold" text-anchor="end" fill="var(--accent, #7e73ee)">main</text><text x="111.92" y="125.93" font-family="system-ui, -apple-system, Helvetica, Arial, sans-serif" font-size="15" font-weight="bold" text-anchor="end" fill="var(--color-brand, #6ea8fe)">feature-auth</text><text x="111.92" y="188.93" font-family="system-ui, -apple-system, Helvetica, Arial, sans-serif" font-size="15" font-weight="bold" text-anchor="end" fill="var(--doc-figure-2, #7e73ee)">feature-ui</text><rect x="27" y="242.93" width="13.5" height="13.5" rx="2.25" fill="var(--accent, #7e73ee)"/><text x="49.5" y="252.48" font-family="system-ui, -apple-system, Helvetica, Arial, sans-serif" font-size="12.75" fill="var(--ink-1, #9a9aa6)">main</text><rect x="27" y="265.28" width="13.5" height="13.5" rx="2.25" fill="var(--color-brand, #6ea8fe)"/><text x="49.5" y="274.83" font-family="system-ui, -apple-system, Helvetica, Arial, sans-serif" font-size="12.75" fill="var(--ink-1, #9a9aa6)">feature-auth</text><rect x="27" y="287.62" width="13.5" height="13.5" rx="2.25" fill="var(--doc-figure-2, #7e73ee)"/><text x="49.5" y="297.18" font-family="system-ui, -apple-system, Helvetica, Arial, sans-serif" font-size="12.75" fill="var(--ink-1, #9a9aa6)">feature-ui</text></svg>
