<?xml version="1.0" encoding="UTF-8"?>
<svg xmlns="http://www.w3.org/2000/svg" version="1.1" width="422.54" height="432" viewBox="0 0 422.54 432" class="atelier-diagram" data-renderer="atelier/diagram"><defs><pattern id="adi-bg-grid" width="16" height="16" patternUnits="userSpaceOnUse"><rect x="0" y="0" width="0.45" height="16" fill="#67e8f9" opacity="0.26"/><rect x="0" y="0" width="16" height="0.45" fill="#67e8f9" opacity="0.26"/></pattern><pattern id="adi-bg-grid-major" width="80" height="80" patternUnits="userSpaceOnUse"><rect x="0" y="0" width="0.8" height="80" fill="#e6fbff" opacity="0.22"/><rect x="0" y="0" width="80" height="0.8" fill="#e6fbff" opacity="0.22"/></pattern></defs><rect x="0" y="0" width="422.54" height="432" fill="#06182b"/><rect x="0" y="0" width="422.54" height="432" fill="url(#adi-bg-grid)"/><rect x="0" y="0" width="422.54" height="432" fill="url(#adi-bg-grid-major)"/><path d="M 112 216 C 140 216 140 96 168 96" fill="none" stroke="#e6fbff" stroke-width="0.95" stroke-linecap="round" stroke-linejoin="round"/><path d="M 112 216 C 140 216 140 240 168 240" fill="none" stroke="#e6fbff" stroke-width="0.95" stroke-linecap="round" stroke-linejoin="round"/><path d="M 112 216 C 140 216 140 360 168 360" fill="none" stroke="#e6fbff" stroke-width="0.95" stroke-linecap="round" stroke-linejoin="round"/><path d="M 248 96 C 276 96 276 48 304 48" fill="none" stroke="#e6fbff" stroke-width="0.95" stroke-linecap="round" stroke-linejoin="round"/><path d="M 248 96 C 276 96 276 96 304 96" fill="none" stroke="#e6fbff" stroke-width="0.95" stroke-linecap="round" stroke-linejoin="round"/><path d="M 248 96 C 276 96 276 144 304 144" fill="none" stroke="#e6fbff" stroke-width="0.95" stroke-linecap="round" stroke-linejoin="round"/><path d="M 248 240 C 276 240 276 192 304 192" fill="none" stroke="#e6fbff" stroke-width="0.95" stroke-linecap="round" stroke-linejoin="round"/><path d="M 248 240 C 276 240 276 240 304 240" fill="none" stroke="#e6fbff" stroke-width="0.95" stroke-linecap="round" stroke-linejoin="round"/><path d="M 248 240 C 276 240 276 288 304 288" fill="none" stroke="#e6fbff" stroke-width="0.95" stroke-linecap="round" stroke-linejoin="round"/><path d="M 248 360 C 276 360 276 336 304 336" fill="none" stroke="#e6fbff" stroke-width="0.95" stroke-linecap="round" stroke-linejoin="round"/><path d="M 248 360 C 276 360 276 384 304 384" fill="none" stroke="#e6fbff" stroke-width="0.95" stroke-linecap="round" stroke-linejoin="round"/><rect x="32" y="200" width="80" height="32" rx="12" fill="#67e8f9" stroke="#67e8f9" stroke-width="0.95"/><text x="72" y="219.2" font-family="ui-monospace, SFMono-Regular, Menlo, Consolas, monospace" font-size="14.56" font-weight="bold" text-anchor="middle" fill="#06182b">Atelier</text><rect x="168" y="80" width="80" height="32" rx="12" fill="#08243d" stroke="#e6fbff" stroke-width="0.95"/><text x="208" y="98.86" font-family="ui-monospace, SFMono-Regular, Menlo, Consolas, monospace" font-size="13" text-anchor="middle" fill="#ffffff">Layout</text><rect x="304" y="32" width="80" height="32" rx="12" fill="#08243d" stroke="#e6fbff" stroke-width="0.95"/><text x="344" y="50.86" font-family="ui-monospace, SFMono-Regular, Menlo, Consolas, monospace" font-size="13" text-anchor="middle" fill="#ffffff">Grid</text><rect x="304" y="80" width="80" height="32" rx="12" fill="#08243d" stroke="#e6fbff" stroke-width="0.95"/><text x="344" y="98.86" font-family="ui-monospace, SFMono-Regular, Menlo, Consolas, monospace" font-size="13" text-anchor="middle" fill="#ffffff">Stack</text><rect x="304" y="128" width="80" height="32" rx="12" fill="#08243d" stroke="#e6fbff" stroke-width="0.95"/><text x="344" y="146.86" font-family="ui-monospace, SFMono-Regular, Menlo, Consolas, monospace" font-size="13" text-anchor="middle" fill="#ffffff">Routing</text><rect x="168" y="224" width="80" height="32" rx="12" fill="#08243d" stroke="#e6fbff" stroke-width="0.95"/><text x="208" y="242.86" font-family="ui-monospace, SFMono-Regular, Menlo, Consolas, monospace" font-size="13" text-anchor="middle" fill="#ffffff">Diagram</text><rect x="304" y="176" width="86.54" height="32" rx="12" fill="#08243d" stroke="#e6fbff" stroke-width="0.95"/><text x="347.27" y="194.86" font-family="ui-monospace, SFMono-Regular, Menlo, Consolas, monospace" font-size="13" text-anchor="middle" fill="#ffffff">Sequence</text><rect x="304" y="224" width="80" height="32" rx="12" fill="#08243d" stroke="#e6fbff" stroke-width="0.95"/><text x="344" y="242.86" font-family="ui-monospace, SFMono-Regular, Menlo, Consolas, monospace" font-size="13" text-anchor="middle" fill="#ffffff">Timeline</text><rect x="304" y="272" width="80" height="32" rx="12" fill="#08243d" stroke="#e6fbff" stroke-width="0.95"/><text x="344" y="290.86" font-family="ui-monospace, SFMono-Regular, Menlo, Consolas, monospace" font-size="13" text-anchor="middle" fill="#ffffff">ER</text><rect x="168" y="344" width="80" height="32" rx="12" fill="#08243d" stroke="#e6fbff" stroke-width="0.95"/><text x="208" y="362.86" font-family="ui-monospace, SFMono-Regular, Menlo, Consolas, monospace" font-size="13" text-anchor="middle" fill="#ffffff">SVG</text><rect x="304" y="320" width="80" height="32" rx="12" fill="#08243d" stroke="#e6fbff" stroke-width="0.95"/><text x="344" y="338.86" font-family="ui-monospace, SFMono-Regular, Menlo, Consolas, monospace" font-size="13" text-anchor="middle" fill="#ffffff">Scene</text><rect x="304" y="368" width="82.18" height="32" rx="12" fill="#08243d" stroke="#e6fbff" stroke-width="0.95"/><text x="345.09" y="386.86" font-family="ui-monospace, SFMono-Regular, Menlo, Consolas, monospace" font-size="13" text-anchor="middle" fill="#ffffff">Renderer</text></svg>
