<?xml version="1.0" encoding="UTF-8"?>
<svg xmlns="http://www.w3.org/2000/svg" version="1.1" width="447.03" height="607.75" viewBox="0 0 447.03 607.75" class="atelier-diagram" data-renderer="atelier/diagram" role="img"><title>Checkout sequence</title><rect x="0" y="0" width="447.03" height="607.75" fill="transparent"/><text x="223.52" y="51.87" font-family="system-ui, -apple-system, Helvetica, Arial, sans-serif" font-size="17.25" font-weight="bold" text-anchor="middle" fill="var(--ink-0, #e6e6ea)">Checkout sequence</text><rect x="36" y="78.15" width="101.01" height="48" rx="4" fill="var(--surface-1, #14141c)" stroke="var(--color-brand, #6ea8fe)" stroke-width="1.8"/><text x="86.5" y="105.45" font-family="system-ui, -apple-system, Helvetica, Arial, sans-serif" font-size="15" text-anchor="middle" fill="var(--ink-0, #e6e6ea)">Customer</text><line x1="86.5" y1="126.15" x2="86.5" y2="571.75" fill="none" stroke="var(--ink-1, #9a9aa6)" stroke-width="1.8" stroke-dasharray="3.6 5.4" opacity="0.75"/><rect x="173.01" y="78.15" width="101.01" height="48" rx="4" fill="var(--surface-1, #14141c)" stroke="var(--color-brand, #6ea8fe)" stroke-width="1.8"/><text x="223.51" y="105.45" font-family="system-ui, -apple-system, Helvetica, Arial, sans-serif" font-size="15" text-anchor="middle" fill="var(--ink-0, #e6e6ea)">App</text><line x1="223.51" y1="126.15" x2="223.51" y2="571.75" fill="none" stroke="var(--ink-1, #9a9aa6)" stroke-width="1.8" stroke-dasharray="3.6 5.4" opacity="0.75"/><rect x="310.02" y="78.15" width="101.01" height="48" rx="4" fill="var(--surface-1, #14141c)" stroke="var(--color-brand, #6ea8fe)" stroke-width="1.8"/><text x="360.52" y="105.45" font-family="system-ui, -apple-system, Helvetica, Arial, sans-serif" font-size="15" text-anchor="middle" fill="var(--ink-0, #e6e6ea)">API</text><line x1="360.52" y1="126.15" x2="360.52" y2="571.75" fill="none" stroke="var(--ink-1, #9a9aa6)" stroke-width="1.8" stroke-dasharray="3.6 5.4" opacity="0.75"/><rect x="45" y="193.66" width="357.03" height="179.59" rx="6" fill="none" stroke="var(--ink-1, #9a9aa6)" stroke-width="1.8" opacity="0.85"/><text x="54" y="210.38" font-family="system-ui, -apple-system, Helvetica, Arial, sans-serif" font-size="12.3" font-weight="bold" fill="var(--ink-1, #9a9aa6)">alt payment accepted</text><line x1="49.5" y1="307.54" x2="397.53" y2="307.54" fill="none" stroke="var(--ink-1, #9a9aa6)" stroke-width="1.35" stroke-dasharray="8.1 5.4"/><rect x="50.4" y="298.93" width="90.45" height="17.22" fill="var(--figure-canvas, #05070c)"/><text x="54" y="310.24" font-family="system-ui, -apple-system, Helvetica, Arial, sans-serif" font-size="12.3" font-weight="bold" fill="var(--ink-1, #9a9aa6)">manual review</text><rect x="45" y="402.96" width="357.03" height="116.57" rx="6" fill="none" stroke="var(--ink-1, #9a9aa6)" stroke-width="1.8" opacity="0.85"/><text x="54" y="419.68" font-family="system-ui, -apple-system, Helvetica, Arial, sans-serif" font-size="12.3" font-weight="bold" fill="var(--ink-1, #9a9aa6)">loop status polling</text><rect x="356.47" y="245.42" width="8.1" height="51.76" rx="2" fill="var(--surface-1, #14141c)" stroke="var(--color-brand, #6ea8fe)" stroke-width="1.35"/><line x1="86.5" y1="173.41" x2="223.51" y2="173.41" fill="none" stroke="var(--color-brand, #6ea8fe)" stroke-width="1.8"/><path d="M 223.51 173.41 L 213.16 169.36 L 213.16 177.46 Z" fill="var(--color-brand, #6ea8fe)"/><rect x="113.22" y="149.54" width="83.57" height="20.71" rx="3.15" fill="var(--figure-canvas, #05070c)"/><text x="155.01" y="164.39" font-family="system-ui, -apple-system, Helvetica, Arial, sans-serif" font-size="13.2" text-anchor="middle" fill="var(--ink-0, #e6e6ea)">Confirm cart</text><line x1="223.51" y1="238.67" x2="360.52" y2="238.67" fill="none" stroke="var(--color-brand, #6ea8fe)" stroke-width="1.8"/><path d="M 360.52 238.67 L 350.17 234.62 L 350.17 242.72 Z" fill="var(--color-brand, #6ea8fe)"/><rect x="249.12" y="214.81" width="85.79" height="20.71" rx="3.15" fill="var(--figure-canvas, #05070c)"/><text x="292.02" y="229.65" font-family="system-ui, -apple-system, Helvetica, Arial, sans-serif" font-size="13.2" text-anchor="middle" fill="var(--ink-0, #e6e6ea)">Create order</text><line x1="360.52" y1="279.18" x2="223.51" y2="279.18" fill="none" stroke="var(--color-brand, #6ea8fe)" stroke-width="1.8" stroke-dasharray="10.8 7.2"/><path d="M 223.51 279.18 L 233.86 275.13 L 233.86 283.23 Z" fill="var(--color-brand, #6ea8fe)"/><rect x="240.68" y="255.32" width="102.67" height="20.71" rx="3.15" fill="var(--figure-canvas, #05070c)"/><text x="292.02" y="270.16" font-family="system-ui, -apple-system, Helvetica, Arial, sans-serif" font-size="13.2" text-anchor="middle" fill="var(--ink-0, #e6e6ea)">Order accepted</text><line x1="223.51" y1="342.19" x2="360.52" y2="342.19" fill="none" stroke="var(--color-brand, #6ea8fe)" stroke-width="1.8"/><path d="M 360.52 342.19 L 350.17 338.14 L 350.17 346.24 Z" fill="var(--color-brand, #6ea8fe)"/><rect x="247.3" y="318.33" width="89.45" height="20.71" rx="3.15" fill="var(--figure-canvas, #05070c)"/><text x="292.02" y="333.17" font-family="system-ui, -apple-system, Helvetica, Arial, sans-serif" font-size="13.2" text-anchor="middle" fill="var(--ink-0, #e6e6ea)">Review order</text><line x1="360.52" y1="382.7" x2="223.51" y2="382.7" fill="none" stroke="var(--color-brand, #6ea8fe)" stroke-width="1.8" stroke-dasharray="10.8 7.2"/><path d="M 223.51 382.7 L 233.86 378.65 L 233.86 386.75 Z" fill="var(--color-brand, #6ea8fe)"/><rect x="238.49" y="358.84" width="107.06" height="20.71" rx="3.15" fill="var(--figure-canvas, #05070c)"/><text x="292.02" y="373.69" font-family="system-ui, -apple-system, Helvetica, Arial, sans-serif" font-size="13.2" text-anchor="middle" fill="var(--ink-0, #e6e6ea)">Review required</text><line x1="223.51" y1="447.97" x2="86.5" y2="447.97" fill="none" stroke="var(--color-brand, #6ea8fe)" stroke-width="1.8"/><path d="M 86.5 447.97 L 96.85 443.92 L 96.85 452.02 Z" fill="var(--color-brand, #6ea8fe)"/><rect x="113.21" y="424.1" width="83.6" height="20.71" rx="3.15" fill="var(--figure-canvas, #05070c)"/><text x="155.01" y="438.95" font-family="system-ui, -apple-system, Helvetica, Arial, sans-serif" font-size="13.2" text-anchor="middle" fill="var(--ink-0, #e6e6ea)">Show status</text><line x1="86.5" y1="488.48" x2="223.51" y2="488.48" fill="none" stroke="var(--color-brand, #6ea8fe)" stroke-width="1.8"/><path d="M 223.51 488.48 L 213.16 484.43 L 213.16 492.53 Z" fill="var(--color-brand, #6ea8fe)"/><rect x="126.05" y="464.62" width="57.91" height="20.71" rx="3.15" fill="var(--figure-canvas, #05070c)"/><text x="155.01" y="479.46" font-family="system-ui, -apple-system, Helvetica, Arial, sans-serif" font-size="13.2" text-anchor="middle" fill="var(--ink-0, #e6e6ea)">Refresh</text><line x1="223.51" y1="528.99" x2="360.52" y2="528.99" fill="none" stroke="var(--color-brand, #6ea8fe)" stroke-width="1.8"/><path d="M 360.52 528.99 L 350.17 524.94 L 350.17 533.04 Z" fill="var(--color-brand, #6ea8fe)"/><rect x="250.22" y="505.13" width="83.6" height="20.71" rx="3.15" fill="var(--figure-canvas, #05070c)"/><text x="292.02" y="519.97" font-family="system-ui, -apple-system, Helvetica, Arial, sans-serif" font-size="13.2" text-anchor="middle" fill="var(--ink-0, #e6e6ea)">Fetch status</text></svg>
